<svg xmlns="http://www.w3.org/2000/svg" width="367.2" height="136.6" viewBox="0 0 367.2 136.6">
  <g id="logo" transform="translate(-27.3 -27.5)">
    <path id="Pfad_1" data-name="Pfad 1" d="M128,122.9h12.2L122,92.8c11.3-5.6,18.1-17.4,18.1-30.8,0-18.5-13-34.5-33.3-34.5H68.5V35H59.7v8.1H51.6v8.1H43.5v8.1H35.4v8.1H27.3v96.7H49.8V156h8.1v-8.1h7l9.9,16.2H101L96,156h13l-4.9-8.1h13l-4.9-8.1h13l-4.9-8.1h13Z" fill="#fff"/>
    <g id="Gruppe_2" data-name="Gruppe 2">
      <g id="Gruppe_1" data-name="Gruppe 1">
        <path id="Pfad_2" data-name="Pfad 2" d="M161.2,68.4h9A7.726,7.726,0,0,1,173.8,83l4.3,6.7h-5.7l-3.8-5.9h-2.3v5.9h-4.9V68.4Zm11.7,7.7a3.446,3.446,0,0,0-3.4-3.7h-3.4v7.4h3.4A3.446,3.446,0,0,0,172.9,76.1Z" fill="#020203"/>
        <path id="Pfad_3" data-name="Pfad 3" d="M194.2,89.7l-.8-2.6h-7.6l-.8,2.6h-5.3l7.6-21.3h4.5l7.7,21.3Zm-4.6-15.2L187,83.3h5.2Z" fill="#020203"/>
        <path id="Pfad_4" data-name="Pfad 4" d="M203.2,72.6h-4.8V68.3H213v4.3h-4.8V89.7h-4.9V72.6Z" fill="#020203"/>
        <path id="Pfad_5" data-name="Pfad 5" d="M228.4,72.5v5.8h8.1v4.1h-8.1v7.4h-4.9V68.4h13v4.1Z" fill="#020203"/>
        <path id="Pfad_6" data-name="Pfad 6" d="M239.9,68.4h4.9v14a3.406,3.406,0,1,0,6.8,0v-14h4.9v14c0,4.4-3.2,7.8-8.3,7.8s-8.3-3.4-8.3-7.8v-14Zm4.5-7.5a2.9,2.9,0,0,1,2.9,2.9,2.759,2.759,0,0,1-2.9,2.8,2.883,2.883,0,0,1-2.9-2.8A2.968,2.968,0,0,1,244.4,60.9Zm7.4,0a2.9,2.9,0,0,1,2.9,2.9,2.818,2.818,0,0,1-2.9,2.8,2.85,2.85,0,1,1,0-5.7Z" fill="#020203"/>
        <path id="Pfad_7" data-name="Pfad 7" d="M260.6,68.4h9A7.726,7.726,0,0,1,273.2,83l4.3,6.7h-5.7L268,83.8h-2.3v5.9h-4.9V68.4Zm11.7,7.7a3.446,3.446,0,0,0-3.4-3.7h-3.4v7.4h3.4A3.446,3.446,0,0,0,272.3,76.1Z" fill="#020203"/>
        <path id="Pfad_8" data-name="Pfad 8" d="M166.1,113.8v9h-4.9V101.5h4.9v9.1l6.9-9.1h5.9l-8.4,10.7,8.4,10.7H173Z" fill="#020203"/>
        <path id="Pfad_9" data-name="Pfad 9" d="M181,101.5h4.9v14a3.362,3.362,0,0,0,3.4,3.6,3.421,3.421,0,0,0,3.4-3.6v-14h4.9v14c0,4.4-3.2,7.8-8.3,7.8s-8.3-3.4-8.3-7.8v-14Z" fill="#020203"/>
        <path id="Pfad_10" data-name="Pfad 10" d="M214.5,115.4V101.5h4.9v21.3h-5.1l-7.7-13.7v13.7h-4.9V101.5h5.2Z" fill="#020203"/>
        <path id="Pfad_11" data-name="Pfad 11" d="M227.7,115.8c0,2.3,1.4,3.7,3.4,3.7a2.557,2.557,0,0,0,2.8-2.5c0-1.7-1.5-2.3-3.3-3-3.9-1.4-7.2-2.7-7.2-7,0-3.9,3.6-6,7.5-6,5.1,0,7.6,3.2,7.6,6.8h-4.9c0-1.9-.9-3.1-2.7-3.1-1.4,0-2.6.7-2.6,2.2,0,1.4,1.2,2.2,3,2.8,3.5,1.2,7.5,2.6,7.5,6.9,0,4.4-3.3,6.8-8,6.8-4.6,0-8-2.7-8-7.6h4.9Z" fill="#020203"/>
        <path id="Pfad_12" data-name="Pfad 12" d="M245.2,105.8h-4.8v-4.3H255v4.3h-4.8v17.1h-4.9V105.8Z" fill="#020203"/>
        <path id="Pfad_13" data-name="Pfad 13" d="M272.4,112h8.1v3.8h-1.4c-.1,4.5-3,7.5-8.1,7.5-3.9,0-7.9-2.3-7.9-6.6a5.48,5.48,0,0,1,3.5-5,4.992,4.992,0,0,1-3.2-4.7c0-4,3.5-6,7.4-6,5.3,0,7.6,3.2,7.6,6.8h-4.9c0-1.9-.6-3.1-2.7-3.1a2.283,2.283,0,0,0-2.5,2.4c0,1.5.7,2.6,3,2.6v3.8c-2.4,0-3.3,1.2-3.3,3a2.8,2.8,0,0,0,3.1,2.7,3.224,3.224,0,0,0,3.1-3.5h-1.8V112Z" fill="#020203"/>
        <path id="Pfad_14" data-name="Pfad 14" d="M294.6,113.8v9h-4.9V101.5h4.9v9.1l6.9-9.1h5.9L299,112.2l8.4,10.7h-5.9Z" fill="#020203"/>
        <path id="Pfad_15" data-name="Pfad 15" d="M309.5,101.5h4.9v14a3.406,3.406,0,1,0,6.8,0v-14h4.9v14c0,4.4-3.2,7.8-8.3,7.8s-8.3-3.4-8.3-7.8Z" fill="#020203"/>
        <path id="Pfad_16" data-name="Pfad 16" d="M341.2,118.6v4.3h-11V101.6h4.9v17.1h6.1Z" fill="#020203"/>
        <path id="Pfad_17" data-name="Pfad 17" d="M345.1,105.8h-4.8v-4.3h14.6v4.3H350v17.1h-4.9Z" fill="#020203"/>
        <path id="Pfad_18" data-name="Pfad 18" d="M357,101.5h4.9v14a3.362,3.362,0,0,0,3.4,3.6,3.421,3.421,0,0,0,3.4-3.6v-14h4.9v14c0,4.4-3.2,7.8-8.3,7.8s-8.3-3.4-8.3-7.8Z" fill="#020203"/>
        <path id="Pfad_19" data-name="Pfad 19" d="M377.6,101.5h9a7.726,7.726,0,0,1,3.6,14.6l4.3,6.7h-5.7l-3.8-5.9h-2.3v5.9h-4.9V101.5Zm11.8,7.7a3.446,3.446,0,0,0-3.4-3.7h-3.4v7.4H386A3.508,3.508,0,0,0,389.4,109.2Z" fill="#020203"/>
        <path id="Pfad_20" data-name="Pfad 20" d="M181.1,156h-1.3V137.8L172.1,156h-1.2l-7.7-18.2V156h-1.3V134.7h1.3l8.3,19.4,8.3-19.4h1.3V156Z" fill="#020203"/>
        <path id="Pfad_21" data-name="Pfad 21" d="M198.4,156l-1.5-4.4h-10l-1.5,4.4H184l7.3-21.3h1.1l7.3,21.3Zm-6.5-19.3-4.6,13.7h9.1Z" fill="#020203"/>
        <path id="Pfad_22" data-name="Pfad 22" d="M216.1,153.8V134.7h1.3V156h-1.5L204,136.9V156h-1.3V134.7h1.5Z" fill="#020203"/>
        <path id="Pfad_23" data-name="Pfad 23" d="M236.2,153.8V134.7h1.3V156H236l-11.9-19.1V156h-1.3V134.7h1.5Z" fill="#020203"/>
        <path id="Pfad_24" data-name="Pfad 24" d="M256.3,146H244.2v10h-1.3V134.7h1.3v10.1h12.1V134.7h1.3V156h-1.3Z" fill="#020203"/>
        <path id="Pfad_25" data-name="Pfad 25" d="M264.4,135.9v8.9h9.9V146h-9.9v8.7h9.9v1.2H263V134.6h11.3v1.2h-9.9Z" fill="#020203"/>
        <path id="Pfad_26" data-name="Pfad 26" d="M278.7,134.7h1.4V156h-1.4Z" fill="#020203"/>
        <path id="Pfad_27" data-name="Pfad 27" d="M304.7,156h-1.3V137.8L295.7,156h-1.2l-7.7-18.2V156h-1.3V134.7h1.3l8.3,19.4,8.3-19.4h1.3V156Z" fill="#020203"/>
      </g>
      <path id="Pfad_28" data-name="Pfad 28" d="M128,122.9h12.2L122,92.8c11.3-5.6,18.1-17.4,18.1-30.8,0-18.5-13-34.5-33.3-34.5H68.5V35H59.7v8.1H51.6v8.1H43.5v8.1H35.4v8.1H27.3v96.7H49.8V156h8.1v-8.1h7l9.9,16.2H101L96,156h13l-4.9-8.1h13l-4.9-8.1h13l-4.9-8.1h13Zm-19.7-45a14.213,14.213,0,0,1-4.2.6h-.9c.2-8.6-5-16.1-13.5-17.3V54.3c3.1,0,6.2,0,7.5.1C108.5,55.3,112.6,68.8,108.3,77.9Zm-18.6.6v-16c7.8,1,12.3,8.4,12.2,16ZM111,66.7c-1.4-8-7.3-13.7-15-13.7H89.6V45.6h14.5c8.9,0,14.6,7.6,14.6,16.5,0,6.7-3.3,12.7-8.7,15.2A20.041,20.041,0,0,0,111,66.7ZM61.1,36.3h7.4v86.6H80.9v7.4H61.1C61.1,99.6,61.1,67.1,61.1,36.3ZM48.5,162.7H28.7v-94h6.8V156h13Zm8.1-8.1H36.8v-94h6.8v87.2h13Zm8.1-8.1H44.9v-94h6.8v87.2h13ZM53,138.4v-94h6.8v87.2h13v6.8Zm45.6,24.3h-23L66,147v-7.3h7L83,156H94.5Zm8.1-8.1h-23L74.1,139v-7.3h7c.2.3,9.9,16.2,9.9,16.2h11.5Zm8.1-8.1h-23c-.9-1.4-9-14.7-9.6-15.7v-7.9h6.6c3.6,5.9,7.6,12.4,10.3,16.9h11.5Zm8.1-8.1h-23c-2.7-4.4-6.6-10.8-10.3-16.8V102.7c5.8,9.5,12.4,20.3,17.6,28.9h11.5ZM108,130.3c-5.7-9.4-12.2-20-18.4-30.1V96.4h9.9l16.2,26.4h10.7l4.5,7.4C124.9,130.3,114.1,130.3,108,130.3Z" fill="#020203"/>
    </g>
  </g>
</svg>
